<mxfile host="app.diagrams.net" modified="2024-04-07T03:08:05.859Z" agent="Mozilla/5.0 (Macintosh; Intel Mac OS X 10_15_7) AppleWebKit/537.36 (KHTML, like Gecko) Chrome/123.0.0.0 Safari/537.36" etag="njTS-q8WBIjFYmxLZYx1" version="24.2.2" type="device">
  <diagram name="Page-1" id="_N6tD9teyhVah9eZAG-z">
    <mxGraphModel dx="3075" dy="1350" grid="1" gridSize="10" guides="1" tooltips="1" connect="1" arrows="1" fold="1" page="1" pageScale="1" pageWidth="850" pageHeight="1100" math="0" shadow="0">
      <root>
        <mxCell id="0" />
        <mxCell id="1" parent="0" />
        <mxCell id="Epz6YQN7g8bLuvsSlT-2-9" style="edgeStyle=orthogonalEdgeStyle;rounded=0;orthogonalLoop=1;jettySize=auto;html=1;exitX=1;exitY=0.5;exitDx=0;exitDy=0;entryX=0;entryY=0.5;entryDx=0;entryDy=0;" edge="1" parent="1" source="Epz6YQN7g8bLuvsSlT-2-1" target="Epz6YQN7g8bLuvsSlT-2-2">
          <mxGeometry relative="1" as="geometry" />
        </mxCell>
        <mxCell id="Epz6YQN7g8bLuvsSlT-2-10" value="Compile" style="edgeLabel;html=1;align=center;verticalAlign=middle;resizable=0;points=[];" vertex="1" connectable="0" parent="Epz6YQN7g8bLuvsSlT-2-9">
          <mxGeometry x="-0.2222" y="2" relative="1" as="geometry">
            <mxPoint x="7" y="2" as="offset" />
          </mxGeometry>
        </mxCell>
        <mxCell id="Epz6YQN7g8bLuvsSlT-2-1" value="build_cppcmake.cpp" style="rounded=0;whiteSpace=wrap;html=1;" vertex="1" parent="1">
          <mxGeometry x="-210" y="420" width="120" height="60" as="geometry" />
        </mxCell>
        <mxCell id="Epz6YQN7g8bLuvsSlT-2-13" style="edgeStyle=orthogonalEdgeStyle;rounded=0;orthogonalLoop=1;jettySize=auto;html=1;exitX=1;exitY=0.5;exitDx=0;exitDy=0;entryX=0;entryY=0.5;entryDx=0;entryDy=0;" edge="1" parent="1" source="Epz6YQN7g8bLuvsSlT-2-2" target="Epz6YQN7g8bLuvsSlT-2-12">
          <mxGeometry relative="1" as="geometry" />
        </mxCell>
        <mxCell id="Epz6YQN7g8bLuvsSlT-2-20" value="output" style="edgeLabel;html=1;align=center;verticalAlign=middle;resizable=0;points=[];" vertex="1" connectable="0" parent="Epz6YQN7g8bLuvsSlT-2-13">
          <mxGeometry x="-0.0286" y="2" relative="1" as="geometry">
            <mxPoint as="offset" />
          </mxGeometry>
        </mxCell>
        <mxCell id="Epz6YQN7g8bLuvsSlT-2-2" value="build_cppcmake.out" style="rounded=0;whiteSpace=wrap;html=1;" vertex="1" parent="1">
          <mxGeometry x="20" y="420" width="120" height="60" as="geometry" />
        </mxCell>
        <mxCell id="Epz6YQN7g8bLuvsSlT-2-6" style="edgeStyle=orthogonalEdgeStyle;rounded=0;orthogonalLoop=1;jettySize=auto;html=1;exitX=1;exitY=0.5;exitDx=0;exitDy=0;entryX=0.25;entryY=0;entryDx=0;entryDy=0;" edge="1" parent="1" source="Epz6YQN7g8bLuvsSlT-2-3" target="Epz6YQN7g8bLuvsSlT-2-1">
          <mxGeometry relative="1" as="geometry" />
        </mxCell>
        <mxCell id="Epz6YQN7g8bLuvsSlT-2-3" value="executables" style="rounded=0;whiteSpace=wrap;html=1;" vertex="1" parent="1">
          <mxGeometry x="-380" y="385" width="80" height="30" as="geometry" />
        </mxCell>
        <mxCell id="Epz6YQN7g8bLuvsSlT-2-7" style="edgeStyle=orthogonalEdgeStyle;rounded=0;orthogonalLoop=1;jettySize=auto;html=1;exitX=1;exitY=0.5;exitDx=0;exitDy=0;entryX=0;entryY=0.5;entryDx=0;entryDy=0;" edge="1" parent="1" source="Epz6YQN7g8bLuvsSlT-2-4" target="Epz6YQN7g8bLuvsSlT-2-1">
          <mxGeometry relative="1" as="geometry" />
        </mxCell>
        <mxCell id="Epz6YQN7g8bLuvsSlT-2-4" value="libraries" style="rounded=0;whiteSpace=wrap;html=1;" vertex="1" parent="1">
          <mxGeometry x="-380" y="435" width="80" height="30" as="geometry" />
        </mxCell>
        <mxCell id="Epz6YQN7g8bLuvsSlT-2-8" style="edgeStyle=orthogonalEdgeStyle;rounded=0;orthogonalLoop=1;jettySize=auto;html=1;exitX=1;exitY=0.5;exitDx=0;exitDy=0;entryX=0.25;entryY=1;entryDx=0;entryDy=0;" edge="1" parent="1" source="Epz6YQN7g8bLuvsSlT-2-5" target="Epz6YQN7g8bLuvsSlT-2-1">
          <mxGeometry relative="1" as="geometry" />
        </mxCell>
        <mxCell id="Epz6YQN7g8bLuvsSlT-2-5" value="compile definitions" style="rounded=0;whiteSpace=wrap;html=1;" vertex="1" parent="1">
          <mxGeometry x="-380" y="485" width="80" height="30" as="geometry" />
        </mxCell>
        <mxCell id="Epz6YQN7g8bLuvsSlT-2-16" style="edgeStyle=orthogonalEdgeStyle;rounded=0;orthogonalLoop=1;jettySize=auto;html=1;exitX=0.5;exitY=1;exitDx=0;exitDy=0;entryX=0.5;entryY=0;entryDx=0;entryDy=0;" edge="1" parent="1" source="Epz6YQN7g8bLuvsSlT-2-12" target="Epz6YQN7g8bLuvsSlT-2-15">
          <mxGeometry relative="1" as="geometry" />
        </mxCell>
        <mxCell id="Epz6YQN7g8bLuvsSlT-2-12" value="ninja_deps_graph.o" style="rounded=0;whiteSpace=wrap;html=1;" vertex="1" parent="1">
          <mxGeometry x="210" y="420" width="120" height="60" as="geometry" />
        </mxCell>
        <mxCell id="Epz6YQN7g8bLuvsSlT-2-19" style="edgeStyle=orthogonalEdgeStyle;rounded=0;orthogonalLoop=1;jettySize=auto;html=1;exitX=0.5;exitY=1;exitDx=0;exitDy=0;entryX=0.5;entryY=0;entryDx=0;entryDy=0;" edge="1" parent="1" source="Epz6YQN7g8bLuvsSlT-2-15" target="Epz6YQN7g8bLuvsSlT-2-18">
          <mxGeometry relative="1" as="geometry" />
        </mxCell>
        <mxCell id="Epz6YQN7g8bLuvsSlT-2-15" value="NINJA" style="shape=process;whiteSpace=wrap;html=1;backgroundOutline=1;" vertex="1" parent="1">
          <mxGeometry x="210" y="520" width="120" height="60" as="geometry" />
        </mxCell>
        <mxCell id="Epz6YQN7g8bLuvsSlT-2-21" style="edgeStyle=orthogonalEdgeStyle;rounded=0;orthogonalLoop=1;jettySize=auto;html=1;exitX=0.5;exitY=1;exitDx=0;exitDy=0;entryX=0.5;entryY=0;entryDx=0;entryDy=0;" edge="1" parent="1" source="Epz6YQN7g8bLuvsSlT-2-18" target="Epz6YQN7g8bLuvsSlT-2-22">
          <mxGeometry relative="1" as="geometry">
            <mxPoint x="270" y="740" as="targetPoint" />
          </mxGeometry>
        </mxCell>
        <mxCell id="Epz6YQN7g8bLuvsSlT-2-18" value="build.ninja.so" style="rounded=0;whiteSpace=wrap;html=1;" vertex="1" parent="1">
          <mxGeometry x="210" y="620" width="120" height="60" as="geometry" />
        </mxCell>
        <mxCell id="Epz6YQN7g8bLuvsSlT-2-22" value="continues to build..." style="text;html=1;align=center;verticalAlign=middle;whiteSpace=wrap;rounded=0;" vertex="1" parent="1">
          <mxGeometry x="210" y="730" width="120" height="30" as="geometry" />
        </mxCell>
        <mxCell id="Epz6YQN7g8bLuvsSlT-2-23" value="&lt;h1&gt;&lt;font style=&quot;font-size: 18px;&quot;&gt;CppCmake&lt;/font&gt;&lt;/h1&gt;" style="text;html=1;align=center;verticalAlign=middle;whiteSpace=wrap;rounded=0;" vertex="1" parent="1">
          <mxGeometry x="-30" y="270" width="60" height="30" as="geometry" />
        </mxCell>
      </root>
    </mxGraphModel>
  </diagram>
</mxfile>
